<svg xmlns="http://www.w3.org/2000/svg" width="35" height="29" viewBox="0 0 35 29">
  <defs>
    <linearGradient id="a" x1="85.355%" x2="14.645%" y1="14.645%" y2="85.355%">
      <stop stop-color="#22FF51" offset="0%"/>
      <stop stop-color="#21A6B2" offset="100%"/>
    </linearGradient>
  </defs>
  <path fill="url(#a)" fill-rule="evenodd" d="M7.89274956,10.6527172 C7.02432235,9.7847046 5.6142608,9.78147477 4.74655431,10.648767 L0.648108931,14.7452557 C-0.215561443,15.6085137 -0.217828136,17.020475 0.652061033,17.8899488 L6.94730097,24.1821832 L4.1879895,21.4194149 L10.4832294,27.7116493 C10.9246741,28.1528832 11.506075,28.3706608 12.0850505,28.3642281 C12.7284411,28.4303409 13.3965433,28.2175592 13.8899488,27.723918 L33.7116493,7.89274956 C34.5796619,7.02432235 34.5828917,5.6142608 33.7155995,4.74655431 L29.6191108,0.648108931 C28.7558528,-0.215561443 27.3438915,-0.217828136 26.4744177,0.652061033 L12.19008,14.9432217 L11.428678,14.1821832 L12.1894219,14.9438801 L7.89274956,10.6527172 Z"/>
</svg>
