<svg xmlns="http://www.w3.org/2000/svg" width="185" height="278" viewBox="0 0 185 278">
  <defs>
    <linearGradient id="a" x1="85.355%" x2="14.645%" y1="14.645%" y2="85.355%">
      <stop stop-color="#22FF51" offset="0%"/>
      <stop stop-color="#21A6B2" offset="100%"/>
    </linearGradient>
  </defs>
  <path fill="url(#a)" fill-rule="evenodd" d="M0,0 L185,0 L185,278 L0,278 L0,0 Z M79.4839154,133.499656 C78.2203577,132.236702 76.1687244,132.232002 74.9062154,133.493908 L68.9429956,139.454281 C67.6863591,140.710318 67.683061,142.764715 68.9487459,144.029796 L78.1082919,153.184969 L74.093506,149.165153 L83.2530521,158.320326 C83.8953522,158.96232 84.7412878,159.279185 85.5836945,159.269825 C86.519825,159.366019 87.4919107,159.056423 88.2098136,158.338177 L117.050299,129.483915 C118.313254,128.220358 118.317953,126.168724 117.056047,124.906215 L111.095674,118.942996 C109.839638,117.686359 107.78524,117.683061 106.52016,118.948746 L85.736512,139.742321 L84.6286756,138.635013 L85.7355544,139.743279 L79.4839154,133.499656 Z" opacity=".895"/>
</svg>
