<svg xmlns="http://www.w3.org/2000/svg" width="29" height="29" viewBox="0 0 29 29">
  <path fill="#000000" fill-rule="evenodd" d="M14.5,7.26276838 L8.20476006,0.970533953 C7.33633285,0.102521353 5.9262713,0.0992915209 5.05856482,0.966583738 L0.960119434,5.06307241 C0.0964490606,5.92633045 0.0941823676,7.33829172 0.964071537,8.20776558 L7.25931148,14.5 L0.964071537,20.7922344 C0.095644326,21.660247 0.0924129512,23.0696354 0.960119434,23.9369276 L5.05856482,28.0334163 C5.92223519,28.8966743 7.33487089,28.8989399 8.20476006,28.029466 L14.5,21.7372316 L20.7952399,28.029466 C21.6636672,28.8974786 23.0737287,28.9007085 23.9414352,28.0334163 L28.0398806,23.9369276 C28.9035509,23.0736696 28.9058176,21.6617083 28.0359285,20.7922344 L21.7406885,14.5 L28.0359285,8.20776558 C28.9043557,7.33975298 28.907587,5.93036463 28.0398806,5.06307241 L23.9414352,0.966583738 C23.0777648,0.103325703 21.6651291,0.101060093 20.7952399,0.970533953 L14.5,7.26276838 Z"/>
</svg>
