<svg xmlns="http://www.w3.org/2000/svg" viewBox="0 0 543.21 310.74"><defs><style>.cls-1{fill:#efefef;}.cls-2{fill:#fff;}.cls-3{fill:blue;}.cls-4{fill:red;}</style></defs><title>Asset 2</title><g id="Layer_2" data-name="Layer 2"><g id="Layer_1-2" data-name="Layer 1"><path class="cls-1" d="M281.18,36.54c-15.6,1.06-123.46-4-123.46-4l-33.84-4s-58.42-7.14-65-7.93S20.26,32.31,6.52,39.45c-6.08,2.91-5,7.4-1.85,9.78s10.84,6.87,13.75,7.4,9-3.05,15.07-6.08c5.29-2.64,14.28-8.72,17.71-8.72s43.88,9.25,43.88,9.25l38.07,11.63,27.76,8.72"/><path d="M160.27,73.45l-27.76-8.72-38-11.6C79,49.58,53.6,44,51.19,43.94c-1.8,0-7.29,3.16-10.92,5.26-2.13,1.23-4.15,2.39-5.85,3.24-1.06.53-2.12,1.08-3.17,1.62C25,57.29,21,59.25,18,58.71c-3.48-.63-11.45-5.4-14.64-7.79A7.69,7.69,0,0,1,0,44.15c.19-1.88,1.3-4.56,5.54-6.59,13.46-7,46-19.88,53.54-19,6.54.78,64.45,7.86,65,7.93l33.75,4c3.35.16,108,5,123.14,4l-13.6,7.22c-15.54,1.05-105.4-6.76-109.81-7h-.15l-33.84-4c-.59-.07-58.51-8.21-65-9-5.53-.67-36.45,12-51.12,19.6l-.06,0c-1.94.93-3.08,2.07-3.19,3.21a3.61,3.61,0,0,0,1.69,3c3.4,2.55,10.62,6.61,12.86,7,1.69.31,6.59-2.22,10.53-4.25,1.06-.55,2.14-1.1,3.22-1.64,1.59-.8,3.55-1.93,5.63-3.12,6.1-3.52,10.3-5.82,13-5.82,3.5,0,37.56,7.75,44.36,9.31l.15,0L136,59.63l37.36,7.75Z"/><path class="cls-1" d="M9.25,115.49,151.65,8.78c7.67-6.08,9.78-7.4,15.86-6.34C167.77,2.44,221.7,9,221.7,9c4.76,1.85,3.44,5.29-2.91,9.52-.53.26-12.69,7.67-12.69,7.67-5.82,4.23-12.16,0-15.07-.79-1.32-.53-14.28-4.49-17.71-5s-5.29-.79-8.72,3.44-50.84,63.09-50.84,63.09"/><path d="M20,114.61,8,113.8,150.63,7.11c7.7-6.1,9.79-8,17.79-6.75h0c0,.16,9,1.1,53.82,6.59l.37.13c3.19,1.24,4,3.12,4.11,4.47.29,2.71-1.93,5.58-6.72,8.78l-.24.13c-.55.3-7.92,4.77-12.47,7.54-5.6,4-11.45,1.62-15,.18a19.4,19.4,0,0,0-1.85-.7l-.23-.08c-1.33-.53-14.08-4.41-17.25-4.9s-4.07-.63-6.76,2.68c-3.39,4.18-50.37,62.5-50.84,63.09l-8.7-1.5c.47-.59,52.85-60.07,56.25-64.25,4-4.94,6.68-4.81,10.69-4.19,3.52.54,16.12,4.38,18.05,5.1a22.84,22.84,0,0,1,2.23.83c3.95,1.62,7.49,2.76,10.93.26l.14-.1c4.3-2.61,11.4-6.93,12.67-7.66,4.79-3.21,4.77-4.75,4.77-4.76s-.26-.46-1.28-.89c-18.34-2.25-52.82-6.47-53.84-6.57h0l-.18,0c-5.17-.9-6.6-.09-14.18,5.92l0,0Z"/><path class="cls-2" d="M12.6,116.9,278.54,39.45,296.25,109c-6.61,3.44-8.46,12.16-7.67,17.45.26.26-103.63,35.16-103.63,35.16-9-18.77-16.39-22.21-21.68-20.62s-5.29,6.87-7.93,31.19c-.26.53-102.84,31.46-102.84,31.46-3.7-11.37-12.69-14.28-20.09-10.84C32.16,192.25,12.6,116.9,12.6,116.9Z"/><path d="M292.45,127.33c-.5,2.13-2.12,2.71-3.69,3.28l-3.34,1.18c-2.7.94-6.66,2.3-11.77,4-8.6,2.93-20.59,7-35.63,12.07-25.6,8.64-51.53,17.35-51.79,17.44l-3.32,1.12-1.51-3.16c-6.19-12.93-12.53-19.86-17-18.53-.7.21-1.26.38-2,3-.88,3.33-1.51,9.21-2.45,18.13-.22,2-.45,4.27-.72,6.68l-.08.71-.32.64c-.8,1.6-1.25,1.74-6.84,3.51-2.69.85-6.63,2.08-11.71,3.64-8.55,2.63-20.44,6.26-35.35,10.79-25.39,7.71-51.07,15.46-51.33,15.53l-3.71,1.12-1.2-3.69c-1.43-4.39-3.79-7.4-6.83-8.73a9.43,9.43,0,0,0-7.82.26L30.6,198l-1.72-3.45c-.25-.5-.45-.9-20.12-76.65l-1-3.73L281.37,34.49,300.87,111l-2.79,1.45c-4.33,2.25-5.86,8.13-5.69,12.13m-254,62.83a16.7,16.7,0,0,1,6.69,1.4,19.54,19.54,0,0,1,9.77,9.93c35.84-10.81,85.85-26,96.83-29.53a5.17,5.17,0,0,0,3.62-4.7c1-9.61,1-9.53,2-13.45.91-3.43,1.11-8.77,6-10.13,6-1.67,15.94,1.31,24,16.83,35.79-12,85.35-29.91,97.2-34.06.06-5.86,2.4-12.5,7.27-16.49l-16-62.84L17.4,119.63c6.35,24.46,14.84,57,17.77,68.11A17.33,17.33,0,0,1,38.38,187.45Z"/><path class="cls-3" d="M178.08,84.39l81.16-24.06c4.23,4.76,14.89,52.52,14.8,55.25-.53,4-77.46,26.17-77.46,26.17-5.29,1.59-7.4-4-9-7.67,0-.26-13.75-42-13.75-42C172.8,87.3,175.7,84.92,178.08,84.39Z"/><path d="M194.75,144.17c-5.15,0-7.54-5.6-8.9-8.8l-.19-.45-.07-.32h0c-.32-1.15-8.37-25.68-13.71-41.89l-.06-.2c-1.23-5.53,2-9.29,5.76-10.17l81.09-24,2.18.62c4.89,5.5,15.42,54.2,15.34,56.72l0,.21c-.25,1.88-.51,3.81-40.39,16.31-19.1,6-38.38,11.56-38.58,11.61A8.43,8.43,0,0,1,194.75,144.17Zm-5.2-10.91.2.46c2.06,4.84,3.45,6.85,6.24,6,33.56-9.69,70.67-21.45,75.89-24.9-.85-6.57-9.68-44.39-13.54-52L178.69,86.42l-.14,0c-.37.08-3.51.91-2.65,5,10.56,32.07,13,39.73,13.64,41.76Z"/><path class="cls-4" d="M44.32,125.36c.26,0,74-21.94,74-21.94,5-1.85,9.78-2.38,12.42,5.29-.26.26,11.9,36.75,11.9,46,.53,3.7-2.64,6.61-9.25,8.72L61.77,184.58c-4,1.32-7.4-2.11-9.25-6.34.26,0-12.42-47.06-12.42-47.06C38.77,127,44.32,125.36,44.32,125.36Z"/><path d="M60.06,187c-3.73,0-7.29-2.88-9.48-7.9l1-1.6-.72-.61a2.08,2.08,0,0,0-.48,1.62c-.29-1.72-7.55-28.87-12.36-46.72a5.77,5.77,0,0,1,.39-4.52c1.49-2.76,4.9-3.8,5.29-3.91h.09c1.48-.38,48.91-14.48,73.84-21.89,3-1.09,6.44-2,9.63-.47,2.43,1.15,4.22,3.47,5.46,7.08l-.5,2.18a2.06,2.06,0,0,0,.59-1.78c.09.47.92,3.18,1.8,6,3.51,11.48,10,32.77,10.12,40.09.59,4.76-3,8.42-10.72,10.88L62.4,186.6A7.47,7.47,0,0,1,60.06,187Zm-5.56-9.49c1.32,2.95,3.81,6,6.6,5.08l.07,0,71.64-21.15c3.76-1.2,8.2-3.3,7.76-6.4l0-.3c0-6.54-6.71-28.46-9.94-39-1-3.34-1.59-5.2-1.82-6.32h0c-.84-2.45-1.95-4-3.28-4.64s-3.35-.49-6.42.64l-.13,0c-61.23,18.21-71.93,21.37-74,21.92v0a5.25,5.25,0,0,0-2.74,1.86,1.54,1.54,0,0,0-.06,1.29l0,.08s3.16,11.7,6.29,23.44c1.82,6.81,3.26,12.26,4.28,16.17S54.29,176.3,54.5,177.49Zm-9.61-50.13v0Z"/><path d="M39,247.22l22.43-2.74L71.9,266.67l4.82-24.06,14.49-1.77L101.68,263,106.49,239l22.43-2.74-13.75,68.86-16.47,2-9.1-19.23-4.2,20.86-16.47,2Z"/><path d="M140.13,234.86,156,232.92,189.2,296l-20.84,2.55-2.91-5.69-20,2.45L144,301.58l-20.84,2.55Zm18,44.13-5.88-11.07-3,12.16Z"/><path d="M186,246.88l-12.21,1.49L171.69,231l46.25-5.65,2.12,17.37-12.21,1.49,6,48.83L192,295.71Z"/><path d="M221,258.63a35.91,35.91,0,0,1,1-14.68,33.67,33.67,0,0,1,6.2-11.89,33.15,33.15,0,0,1,10.26-8.35,37.71,37.71,0,0,1,13.2-4.08,42.48,42.48,0,0,1,10.21-.14,48.17,48.17,0,0,1,7.9,1.55,35.87,35.87,0,0,1,6.78,2.7l-8.18,19.63a35.7,35.7,0,0,0-3.75-1.86,34,34,0,0,0-4.21-1,17.57,17.57,0,0,0-5.4-.1,14.48,14.48,0,0,0-5.52,1.78,14.63,14.63,0,0,0-4.15,3.53,13.76,13.76,0,0,0-2.49,4.79,13.59,13.59,0,0,0-.43,5.54,13.08,13.08,0,0,0,1.8,5.27,14,14,0,0,0,3.67,4,14.9,14.9,0,0,0,5,2.41,15.49,15.49,0,0,0,6,.38,18.65,18.65,0,0,0,5.56-1.48,20.92,20.92,0,0,0,4-2.29,15.41,15.41,0,0,0,3.16-3l12.66,17.09a29.68,29.68,0,0,1-5.88,4.65,54.14,54.14,0,0,1-7.33,3.51A40.1,40.1,0,0,1,261,289a39.63,39.63,0,0,1-14.6-.79,33.93,33.93,0,0,1-12.18-5.71,32.43,32.43,0,0,1-8.78-10.06A36.54,36.54,0,0,1,221,258.63Z"/><path d="M279.36,217.86l21.14-2.58,2.75,22.53,11.81-1.44-2.75-22.53,21.24-2.59,8.09,66.19L320.39,280l-3-24.51L305.59,257l3,24.51L287.45,284Z"/><path d="M371.19,224.26,359,225.76l-2.12-17.37,46.25-5.65,2.12,17.37L393,221.6l6,48.83-21.83,2.67Z"/><path d="M406.58,202.32l21.14-2.58,2.75,22.53,11.81-1.44-2.75-22.53,21.24-2.59,8.08,66.19-21.24,2.59-3-24.51-11.81,1.44,3,24.51-21.14,2.58Z"/><path d="M467.71,194.85l22.43-2.74,8.09,66.19L475.8,261Z"/><path d="M500.88,237.13a33,33,0,0,0,4.7.53,36.43,36.43,0,0,0,4.61.24,44.36,44.36,0,0,0,5.15-.33q4.56-.56,4.15-3.93a3.81,3.81,0,0,0-1.71-2.46,42.2,42.2,0,0,0-3.89-2.55q-2.33-1.38-5-3.07a33.13,33.13,0,0,1-5.12-4,24,24,0,0,1-4.23-5.38,18.66,18.66,0,0,1-2.29-7.22,19.2,19.2,0,0,1,.68-8.44,16.66,16.66,0,0,1,3.94-6.52,21.14,21.14,0,0,1,6.55-4.48,29.14,29.14,0,0,1,8.43-2.29,46.8,46.8,0,0,1,4.79-.33l4.32-.07,4.34.07,2.27,18.56-1.81,0-1.81,0c-.67,0-1.37.07-2.1.15-.4,0-.89.13-1.48.23a9.27,9.27,0,0,0-1.66.45,3.48,3.48,0,0,0-1.3.86,1.72,1.72,0,0,0-.42,1.46q.1.8,1.58,1.82t3.61,2.38q2.13,1.35,4.72,3.15a29.72,29.72,0,0,1,4.85,4.24,28,28,0,0,1,4,5.65,20.43,20.43,0,0,1,2.26,7.38,24,24,0,0,1-.39,8.36,17.54,17.54,0,0,1-3.5,7.18,20.78,20.78,0,0,1-6.95,5.38,32.3,32.3,0,0,1-10.62,3,66,66,0,0,1-7,.51q-3.27,0-5.81-.15a48.33,48.33,0,0,1-5.4-.55Z"/></g></g></svg>